<?xml version="1.0" encoding="UTF-8"?>
<svg id="Layer_1" data-name="Layer 1" xmlns="http://www.w3.org/2000/svg" viewBox="0 0 418.62 100.45">
  <defs>
    <style>
      .cls-1 {
        fill: #fff;
      }

      .cls-2 {
        fill: #80c342;
      }

      .cls-3 {
        fill: #00aeef;
      }

      .cls-4 {
        fill: #2e3192;
      }

      .cls-5 {
        fill: #ec008c;
      }
    </style>
  </defs>
  <g>
    <path class="cls-1" d="M19.08,20.24c-5.82,0-10.54,3.83-10.54,8.56s4.72,8.56,10.54,8.56,10.55-3.84,10.55-8.56-4.72-8.56-10.55-8.56Zm0,13.59c-3.13,0-5.66-2.25-5.66-5.04s2.54-5.03,5.66-5.03,5.66,2.25,5.66,5.03-2.53,5.04-5.66,5.04Z"/>
    <path class="cls-1" d="M17.1,16.25h7.56v4.09h4.88V1.93c0-.8-.67-1.45-1.5-1.45h-3.38v3.61h-7.72c-1.78-1.85-4.34-3.02-7.2-3.02C4.36,1.07,0,5.18,0,10.25s4.36,9.18,9.74,9.18c2.94,0,5.57-1.24,7.36-3.18Zm7.56-8.64v5.11h-5.55c.23-.79,.37-1.62,.37-2.47,0-.92-.14-1.8-.41-2.64h5.6ZM4.87,10.25c0-3.12,2.17-5.66,4.87-5.66s4.86,2.54,4.86,5.66-2.17,5.66-4.86,5.66-4.87-2.53-4.87-5.66Z"/>
    <path class="cls-1" d="M102.47,.48h-3.38V24.3c-4.39,1.17-9.97,1.38-10.88,1.34h-15.01v3.52h12.32c6.73,0,10.78-.83,13.57-1.78v8.63h4.88V1.93c0-.8-.68-1.45-1.5-1.45Z"/>
    <path class="cls-1" d="M127.73,13.47h6.24v14.88h4.88V1.94c0-.81-.67-1.46-1.5-1.46h-3.38V9.95h-6.24v3.52Z"/>
    <path class="cls-1" d="M119.68,14.89c2.73,4.37,8.53,7.76,8.53,7.76l2.86-2.93c-8.55-5.35-9-9.8-8.95-14.22v-.07h7.45V1.91h-19.79v3.52h7.46v.07c.06,4.42-.41,8.87-8.95,14.22l2.86,2.93s5.81-3.39,8.53-7.76Z"/>
    <path class="cls-1" d="M120.99,31.12h0s0-6.28,0-6.28h-4.87v7.04c0,2.3,1.93,4.16,4.29,4.16h18.76v-3.52h-16.81c-.76-.04-1.37-.64-1.37-1.39Z"/>
    <path class="cls-1" d="M160.69,20.25c-5.82,0-10.54,3.83-10.54,8.56s4.72,8.56,10.54,8.56,10.54-3.83,10.54-8.56-4.71-8.56-10.54-8.56Zm0,13.59c-3.12,0-5.66-2.25-5.66-5.04s2.53-5.03,5.66-5.03,5.66,2.25,5.66,5.03-2.53,5.04-5.66,5.04Z"/>
    <path class="cls-1" d="M171.32,8.49V1.94c0-.81-.68-1.46-1.51-1.46h-3.37V13.76c-5.17,1.17-11.64,1.53-12.68,1.56-2.66,.07-3.88-.12-3.92-2.64V5.46h12.04V1.94h-16.91V12.78c-.01,4.36,1.75,6.12,6.28,6.33,3.13,.14,10.79-1.07,15.19-2.12v3.37h4.88V12.01h5.18v-3.52h-5.18Z"/>
    <path class="cls-1" d="M65.44,1.93c0-.8-.67-1.45-1.5-1.45h-3.37V24.31c-4.38,1.17-9.96,1.38-10.86,1.34h-.03v-3.78c4.03-1.06,7.01-4.69,7.01-9.01,0-2.2-.78-4.22-2.06-5.81h3.59V3.52h-8.54V0h-4.88V3.52h-8.54v3.52h3.59c-1.29,1.6-2.07,3.61-2.07,5.81,0,4.32,2.98,7.95,7.02,9.01v3.79h-10.11v3.52h12.32c6.72,0,10.77-.83,13.56-1.78v8.61h4.87V15.7h5.55v-3.52h-5.55V1.93Zm-22.79,10.92c0-3.21,2.04-5.81,4.58-5.81s4.57,2.6,4.57,5.81-2.05,5.81-4.57,5.81-4.58-2.6-4.58-5.81Z"/>
    <path class="cls-1" d="M84.55,21.73c5.72,0,10.37-4.62,10.37-10.31s-4.65-10.31-10.37-10.31-10.38,4.62-10.38,10.31,4.65,10.31,10.38,10.31Zm0-17.09c3.03,0,5.49,3.04,5.49,6.78s-2.46,6.78-5.49,6.78-5.49-3.04-5.49-6.78,2.46-6.78,5.49-6.78Z"/>
  </g>
  <g>
    <path class="cls-2" d="M193.8,60.34c15.96,4.09,32.85,11.1,53.37,16.09,11.36-3.25,23.01-7.63,35.01-13.23,15.96-7.45,31.05-11.05,44.83-12.19H123.86c3.89,.19,7.79,.4,11.67,.69,20.54,1.54,38.34,3.52,58.28,8.63Z"/>
    <path class="cls-5" d="M139.33,73.51c33.98,11.93,69.23,13.97,107.85,2.92-20.52-4.99-37.42-12-53.37-16.09-19.94-5.12-37.73-7.1-58.28-8.63-3.89-.29-7.78-.49-11.67-.69H1.47v15.88c7.13-2.84,14.48-5.33,21.93-7.2,39.37-9.9,78.44,.65,115.93,13.81Z"/>
    <path class="cls-5" d="M346.95,51.02c33.13,2.74,55.37,18.25,58.61,20.16l13.06-20.16h-71.67Z"/>
    <path class="cls-3" d="M327.02,51.02c-13.78,1.14-28.87,4.74-44.83,12.19-12,5.6-23.65,9.98-35.01,13.23,9.73,2.37,20.28,4.29,31.93,5.22,24.13,1.94,38.63-3.21,59.49-8.87,42.87-11.65,66.97-1.61,66.97-1.61-3.24-1.9-25.48-17.42-58.61-20.16h-19.94Z"/>
    <path class="cls-4" d="M338.6,72.79c-20.85,5.67-35.36,10.81-59.49,8.87-11.65-.94-22.2-2.85-31.93-5.22-38.62,11.04-73.87,9.01-107.85-2.92-37.48-13.16-76.55-23.71-115.93-13.81-7.45,1.87-14.8,4.36-21.93,7.2h0s101.06,2.51,170.61,19.56c69.54,17.05,95.91,17.29,135.95,7.28,40.08-10.01,66.41-22.53,97.54-22.56,0,0-24.1-10.04-66.97,1.61Z"/>
  </g>
</svg>